<?xml version="1.0" standalone="no"?>
<!DOCTYPE svg PUBLIC "-//W3C//DTD SVG 20010904//EN"
 "http://www.w3.org/TR/2001/REC-SVG-20010904/DTD/svg10.dtd">
<svg version="1.0" xmlns="http://www.w3.org/2000/svg"
 width="1024.000000pt" height="1024.000000pt" viewBox="0 0 1024.000000 1024.000000"
 preserveAspectRatio="xMidYMid meet">

<g transform="translate(0.000000,1024.000000) scale(0.100000,-0.100000)"
fill="#fff" stroke="none">
<path d="M8240 9843 c-14 -2 -62 -22 -108 -44 -99 -46 -203 -142 -246 -228
-26 -50 -28 -67 -37 -235 -4 -99 -8 -1844 -9 -3877 l0 -3696 50 -84 c106 -178
243 -259 440 -259 98 0 182 19 252 57 67 36 159 138 198 216 30 61 32 74 40
223 5 88 9 382 10 655 0 273 3 752 7 1065 l6 570 126 61 c184 88 297 168 432
302 124 125 209 242 286 394 54 109 118 295 135 397 17 100 16 442 -1 545 -39
239 -178 522 -354 724 -132 151 -265 250 -485 360 l-142 71 -1 233 c-1 741
-19 2074 -29 2151 -13 113 -37 167 -103 234 -66 67 -143 114 -232 141 -69 22
-189 34 -235 24z"/>
<path d="M7400 9064 c-245 -292 -650 -667 -910 -843 -523 -354 -1142 -577
-1875 -676 -423 -56 -869 -80 -1945 -105 -781 -18 -884 -31 -1086 -133 -154
-78 -312 -255 -370 -414 -15 -40 -30 -73 -33 -73 -49 0 -268 -35 -314 -51
-195 -66 -321 -179 -417 -376 l-50 -102 0 -665 0 -666 49 -98 c27 -53 67 -122
90 -152 103 -138 272 -228 486 -260 44 -6 87 -13 96 -16 10 -3 29 -40 49 -96
60 -167 105 -245 194 -334 134 -134 256 -183 568 -226 122 -16 159 -25 162
-37 10 -32 95 -491 120 -646 45 -277 113 -767 156 -1115 152 -1240 149 -1219
197 -1320 43 -88 124 -175 195 -208 27 -12 79 -26 116 -32 128 -18 545 -32
812 -28 247 4 268 6 314 26 122 55 152 103 162 262 14 220 -38 591 -152 1092
-30 131 -54 257 -54 281 0 42 2 45 32 51 48 10 283 127 368 184 195 130 325
298 376 482 26 93 24 279 -4 382 -30 109 -74 210 -143 328 -33 56 -59 103 -57
105 6 6 316 -44 458 -74 438 -93 810 -223 1190 -413 433 -216 701 -413 1096
-800 111 -109 204 -198 208 -198 8 0 5 5873 -3 6554 l-6 499 -75 -89z"/>
</g>
</svg>
