<?xml version="1.0" standalone="no"?>
<!DOCTYPE svg PUBLIC "-//W3C//DTD SVG 20010904//EN"
 "http://www.w3.org/TR/2001/REC-SVG-20010904/DTD/svg10.dtd">
<svg version="1.0" xmlns="http://www.w3.org/2000/svg"
 width="275.000000pt" height="275.000000pt" viewBox="0 0 275.000000 275.000000"
 preserveAspectRatio="xMidYMid meet">

<g transform="translate(0.000000,275.000000) scale(0.100000,-0.100000)"
fill="#000000" stroke="none">
<path d="M144 2490 c-25 -13 -49 -35 -62 -59 l-22 -39 0 -837 c0 -926 -3 -880
64 -928 31 -22 31 -22 551 -25 l520 -3 0 -183 0 -184 -108 -4 c-105 -3 -110
-4 -133 -31 -32 -38 -31 -72 5 -108 l29 -29 460 0 c443 0 460 1 485 20 49 39
43 106 -12 135 -17 8 -33 15 -36 15 -3 0 -50 0 -105 0 l-100 0 0 185 0 185
443 0 c493 0 488 -1 534 69 l23 34 0 851 0 851 -24 36 c-50 74 42 69 -1283 69
-1171 0 -1189 0 -1229 -20z m2306 -795 l0 -645 -1080 0 -1080 0 0 645 0 645
1080 0 1080 0 0 -645z"/>
<path d="M930 2187 c-98 -47 -147 -147 -120 -246 15 -58 81 -123 142 -140 85
-24 158 3 222 82 25 31 31 49 34 100 7 121 -71 209 -191 214 -34 1 -73 -3 -87
-10z"/>
<path d="M1486 2068 c-19 -35 -79 -148 -135 -253 -55 -104 -104 -196 -108
-203 -6 -11 -61 -13 -259 -12 -193 0 -253 -2 -261 -12 -12 -15 -183 -381 -183
-391 0 -4 383 -7 851 -7 780 0 851 1 845 16 -32 84 -301 643 -306 637 -4 -5
-32 -61 -63 -126 l-55 -118 -39 73 c-22 40 -86 160 -142 266 -57 105 -104 192
-106 192 -2 0 -20 -28 -39 -62z"/>
</g>
</svg>
