<?xml version="1.0" standalone="no"?>
<!DOCTYPE svg PUBLIC "-//W3C//DTD SVG 20010904//EN"
 "http://www.w3.org/TR/2001/REC-SVG-20010904/DTD/svg10.dtd">
<svg version="1.0" xmlns="http://www.w3.org/2000/svg"
 width="332.000000pt" height="332.000000pt" viewBox="0 0 332.000000 332.000000"
 preserveAspectRatio="xMidYMid meet">

<g transform="translate(0.000000,332.000000) scale(0.100000,-0.100000)"
fill="#fff" stroke="none">
<path d="M2965 3190 c-115 -43 -444 -165 -730 -270 -286 -105 -713 -263 -950
-350 -236 -87 -596 -220 -800 -295 -255 -94 -378 -144 -395 -161 -20 -20 -25
-34 -25 -74 l0 -50 320 -320 321 -320 46 0 c43 0 55 7 175 97 70 53 432 327
803 608 371 281 695 526 719 543 58 42 93 42 137 -2 61 -61 61 -61 -193 -397
-370 -489 -969 -1281 -1020 -1347 -26 -35 -33 -53 -33 -90 l0 -46 320 -321
320 -320 50 0 c40 0 54 5 74 25 17 17 67 140 161 395 75 204 208 564 295 800
87 237 245 664 350 950 105 286 227 617 271 735 43 118 79 223 79 233 0 24
-36 57 -62 56 -13 0 -117 -36 -233 -79z"/>
<path d="M1940 2013 c-69 -53 -222 -171 -340 -262 -246 -188 -664 -522 -760
-605 -73 -64 -99 -74 -148 -56 -58 21 -66 5 -105 -235 -52 -314 -57 -310 258
-258 233 38 259 49 237 98 -24 51 -15 71 86 192 208 252 497 620 806 1026 104
137 125 171 115 183 -6 8 -14 14 -18 13 -3 0 -62 -43 -131 -96z"/>
</g>
</svg>
