<?xml version="1.0" standalone="no"?>
<!DOCTYPE svg PUBLIC "-//W3C//DTD SVG 20010904//EN"
 "http://www.w3.org/TR/2001/REC-SVG-20010904/DTD/svg10.dtd">
<svg version="1.0" xmlns="http://www.w3.org/2000/svg"
 width="920.000000pt" height="920.000000pt" viewBox="0 0 920.000000 920.000000"
 preserveAspectRatio="xMidYMid meet">

<g transform="translate(0.000000,920.000000) scale(0.100000,-0.100000)"
fill="#fff" stroke="none">
<path d="M3423 7855 c-395 -72 -682 -349 -784 -756 -17 -69 -22 -126 -26 -326
l-6 -243 -333 0 -334 0 0 -2675 0 -2675 2515 0 2515 0 0 2675 0 2675 -170 0
-170 0 0 224 c0 248 -12 342 -58 473 -43 123 -107 226 -201 325 -135 142 -288
232 -491 289 l-85 24 -1150 2 c-914 1 -1165 -1 -1222 -12z m2338 -683 c76 -30
132 -81 166 -150 28 -56 28 -59 31 -275 l3 -217 -1337 2 -1338 3 -1 170 c-1
256 20 333 114 417 90 81 17 77 1231 75 l1075 -2 56 -23z"/>
<path d="M480 6508 c-66 -25 -145 -101 -180 -173 l-25 -50 0 -2430 0 -2430 30
-58 c37 -73 109 -140 181 -166 53 -20 75 -21 589 -21 l535 0 0 2675 0 2675
-537 -1 c-522 0 -540 -1 -593 -21z"/>
<path d="M7300 3855 l0 -2675 718 2 717 3 50 25 c69 33 139 107 167 177 l23
58 0 2405 c0 2308 -1 2407 -18 2458 -27 77 -83 142 -158 182 l-64 35 -717 3
-718 3 0 -2676z"/>
</g>
</svg>
