<?xml version="1.0" standalone="no"?>
<!DOCTYPE svg PUBLIC "-//W3C//DTD SVG 20010904//EN"
 "http://www.w3.org/TR/2001/REC-SVG-20010904/DTD/svg10.dtd">
<svg version="1.0" xmlns="http://www.w3.org/2000/svg"
 width="512.000000pt" height="512.000000pt" viewBox="0 0 512.000000 512.000000"
 preserveAspectRatio="xMidYMid meet">

<g transform="translate(0.000000,512.000000) scale(0.100000,-0.100000)"
fill="#fff" stroke="none">
<path d="M363 4900 c-170 -25 -321 -170 -353 -339 -6 -35 -10 -590 -10 -1580
0 -1281 3 -1536 14 -1586 34 -143 139 -256 284 -306 52 -18 95 -19 839 -19
l783 0 0 -22 c0 -13 -5 -63 -10 -113 -24 -201 -64 -331 -131 -416 -47 -58 -81
-77 -162 -90 -82 -13 -120 -48 -120 -109 0 -34 6 -48 32 -73 l31 -32 1000 0
1000 0 31 32 c26 25 32 39 32 73 0 61 -38 96 -120 109 -81 13 -115 32 -162 90
-67 85 -107 215 -131 416 -5 50 -10 100 -10 113 l0 22 783 0 c744 0 787 1 839
19 145 50 250 163 284 306 11 50 14 305 14 1586 0 990 -4 1545 -10 1580 -33
173 -182 314 -362 339 -76 11 -4310 11 -4385 0z m4449 -245 c23 -17 54 -51 68
-75 l25 -45 0 -1200 0 -1200 -2345 0 -2345 0 0 1200 0 1200 22 42 c23 43 69
84 113 102 16 6 792 9 2222 8 l2196 -2 44 -30z m96 -2972 c-4 -259 -8 -281
-64 -337 -16 -16 -47 -37 -69 -47 -38 -18 -126 -19 -2215 -19 -2089 0 -2177 1
-2215 19 -22 10 -53 31 -69 47 -56 56 -60 78 -64 337 l-4 237 2352 0 2352 0
-4 -237z m-1917 -708 c15 -197 65 -398 126 -502 l25 -43 -582 0 -582 0 25 42
c61 104 112 306 123 488 3 47 7 91 10 98 3 10 93 12 426 10 l423 -3 6 -90z"/>
<path d="M2472 1794 c-84 -43 -126 -116 -120 -208 4 -71 34 -123 95 -164 33
-23 48 -27 113 -27 65 0 80 4 113 27 22 14 51 43 65 65 23 33 27 48 27 113 0
65 -4 80 -27 113 -43 63 -92 91 -168 95 -46 2 -75 -2 -98 -14z"/>
</g>
</svg>
