<?xml version="1.0" standalone="no"?>
<!DOCTYPE svg PUBLIC "-//W3C//DTD SVG 20010904//EN"
 "http://www.w3.org/TR/2001/REC-SVG-20010904/DTD/svg10.dtd">
<svg version="1.0" xmlns="http://www.w3.org/2000/svg"
 width="200.000000pt" height="200.000000pt" viewBox="0 0 200.000000 200.000000"
 preserveAspectRatio="xMidYMid meet">

<g transform="translate(0.000000,200.000000) scale(0.100000,-0.100000)"
fill="#000000" stroke="none">
<path d="M900 1576 l0 -44 -67 -21 c-213 -65 -360 -236 -408 -473 -4 -19 -12
-28 -25 -28 -17 0 -20 -7 -20 -50 l0 -50 50 0 50 0 0 50 c0 38 -4 50 -15 50
-19 0 -19 40 0 103 54 178 205 329 383 381 l52 15 0 -40 0 -39 100 0 100 0 0
39 0 40 53 -15 c177 -52 328 -203 382 -381 19 -63 19 -103 0 -103 -11 0 -15
-12 -15 -50 l0 -50 50 0 50 0 0 50 c0 43 -3 50 -20 50 -13 0 -21 9 -25 28 -48
237 -195 408 -407 473 l-68 21 0 44 0 44 -100 0 -100 0 0 -44z m178 -48 l-3
-73 -75 0 -75 0 -3 73 -3 72 81 0 81 0 -3 -72z m-618 -568 c0 -27 -3 -30 -30
-30 -27 0 -30 3 -30 30 0 27 3 30 30 30 27 0 30 -3 30 -30z m1140 0 c0 -27 -3
-30 -30 -30 -27 0 -30 3 -30 30 0 27 3 30 30 30 27 0 30 -3 30 -30z"/>
<path d="M950 1250 c0 -54 -81 -237 -176 -397 l-46 -78 58 -117 58 -118 156 0
156 0 58 118 58 117 -46 78 c-94 159 -176 345 -176 399 0 15 -8 18 -50 18 -43
0 -50 -3 -50 -20z m40 -173 c0 -161 -1 -173 -20 -185 -30 -18 -27 -69 5 -84
38 -17 75 3 75 42 0 19 -7 34 -20 42 -19 12 -20 24 -20 185 0 95 3 173 8 173
4 0 16 -29 26 -64 20 -73 104 -249 164 -346 l40 -65 -54 -107 -54 -108 -140 0
-140 0 -54 108 -54 107 40 65 c60 97 144 273 164 346 10 35 22 64 26 64 5 0 8
-78 8 -173z"/>
<path d="M776 433 c-9 -26 -16 -48 -16 -50 0 -2 108 -3 240 -3 132 0 240 1
240 3 0 2 -7 24 -16 50 l-16 47 -208 0 -208 0 -16 -47z m424 1 c6 -14 10 -27
10 -30 0 -2 -94 -4 -210 -4 -116 0 -210 2 -210 4 0 3 4 16 10 30 l10 26 190 0
190 0 10 -26z"/>
</g>
</svg>
