<?xml version="1.0" standalone="no"?>
<!DOCTYPE svg PUBLIC "-//W3C//DTD SVG 20010904//EN"
 "http://www.w3.org/TR/2001/REC-SVG-20010904/DTD/svg10.dtd">
<svg version="1.0" xmlns="http://www.w3.org/2000/svg"
 width="1024.000000pt" height="1024.000000pt" viewBox="0 0 1024.000000 1024.000000"
 preserveAspectRatio="xMidYMid meet">

<g transform="translate(0.000000,1024.000000) scale(0.100000,-0.100000)"
fill="#000000" stroke="none">
<path d="M3780 8949 c-14 -6 -34 -19 -45 -29 -11 -11 -157 -294 -325 -630
l-305 -610 -112 0 -113 0 0 258 c0 233 -2 261 -20 300 -15 33 -29 47 -62 62
-42 19 -74 20 -1038 20 -964 0 -996 -1 -1038 -20 -33 -15 -47 -29 -62 -62 -18
-39 -20 -67 -20 -300 l0 -258 -97 0 c-127 -1 -175 -20 -203 -82 -19 -42 -20
-94 -20 -3118 0 -3024 1 -3076 20 -3118 15 -33 29 -47 62 -62 42 -19 109 -20
4718 -20 4609 0 4676 1 4718 20 33 15 47 29 62 62 19 42 20 94 20 3118 0 3024
-1 3076 -20 3118 -15 33 -29 47 -62 62 -40 18 -68 20 -380 20 l-338 0 0 258
c0 233 -2 261 -20 300 -15 33 -29 47 -62 62 -41 19 -71 20 -718 20 -647 0
-677 -1 -718 -20 -33 -15 -47 -29 -62 -62 -18 -39 -20 -67 -20 -300 l0 -258
-192 0 -193 0 -310 617 c-232 463 -317 623 -338 638 -28 20 -40 20 -1355 22
-868 1 -1336 -2 -1352 -8z m2825 -909 c194 -388 311 -611 330 -630 17 -16 43
-34 58 -39 19 -8 433 -11 1318 -11 l1289 0 0 -480 0 -480 -1401 0 -1400 0 -72
61 c-89 75 -274 200 -392 264 -614 335 -1358 401 -2028 181 -282 -93 -557
-243 -793 -433 l-92 -73 -1391 0 -1391 0 0 480 0 480 1308 2 1307 3 33 23 c27
20 85 128 340 638 l307 614 1185 0 1185 0 300 -600z m-5005 -200 l0 -160 -320
0 -320 0 0 160 0 160 320 0 320 0 0 -160z m960 0 l0 -160 -320 0 -320 0 0 160
0 160 320 0 320 0 0 -160z m6240 0 l0 -160 -480 0 -480 0 0 160 0 160 480 0
480 0 0 -160z m-3385 -1129 c232 -40 412 -97 624 -202 303 -148 539 -339 752
-609 118 -150 142 -187 198 -310 29 -63 66 -142 81 -175 45 -94 106 -255 120
-315 48 -219 62 -304 75 -445 23 -253 22 -275 -35 -600 -12 -66 -28 -166 -35
-223 -47 -351 -198 -635 -500 -938 -201 -203 -391 -334 -661 -458 -333 -153
-637 -215 -989 -203 -332 12 -626 86 -910 229 -255 129 -446 268 -640 469
-314 324 -546 774 -600 1164 -9 66 -21 137 -26 157 -5 20 -12 102 -16 181 -6
152 3 267 38 437 68 339 67 335 179 565 26 55 62 131 80 169 50 110 174 292
267 390 164 175 199 208 295 282 322 247 697 400 1102 450 154 18 445 11 601
-15z m-2354 -711 c-149 -201 -277 -445 -353 -675 -94 -282 -140 -561 -142
-845 -2 -287 32 -510 115 -760 156 -473 466 -935 809 -1209 53 -42 107 -84
120 -93 24 -16 -61 -17 -1472 -17 l-1498 -1 0 1840 0 1840 1240 0 1240 0 -59
-80z m6539 -1760 l0 -1840 -1497 0 c-823 0 -1494 2 -1492 4 2 2 31 24 64 49
86 63 316 295 411 413 152 189 291 419 373 614 24 58 52 121 62 140 10 20 28
72 39 115 12 44 32 112 44 150 13 39 31 133 40 210 9 77 21 168 27 201 14 92
11 299 -6 421 -50 360 -70 440 -197 783 -40 108 -188 365 -289 500 l-59 80
1240 0 1240 0 0 -1840z m-5257 -2194 c280 -85 497 -117 782 -117 287 0 515 34
773 116 l107 35 1798 0 1797 0 0 -240 0 -240 -4480 0 -4480 0 0 240 0 240
1795 0 1795 0 113 -34z"/>
<path d="M4082 7980 c-33 -15 -47 -29 -62 -62 -40 -88 -12 -184 62 -218 42
-19 74 -20 1038 -20 964 0 996 1 1038 20 33 15 47 29 62 62 40 88 12 184 -62
218 -42 19 -74 20 -1038 20 -964 0 -996 -1 -1038 -20z"/>
<path d="M2705 7096 c-60 -28 -97 -66 -124 -126 -37 -82 -18 -184 47 -254 38
-40 118 -76 172 -76 54 0 134 36 172 76 68 73 85 173 44 259 -59 125 -193 177
-311 121z"/>
<path d="M960 6880 l0 -160 640 0 640 0 0 160 0 160 -640 0 -640 0 0 -160z"/>
<path d="M4885 6384 c-802 -98 -1462 -700 -1639 -1495 -205 -922 311 -1871
1199 -2204 709 -266 1494 -96 2029 440 309 310 501 704 551 1135 101 857 -390
1678 -1199 2004 -291 117 -621 159 -941 120z m537 -333 c965 -194 1533 -1192
1202 -2113 -38 -105 -112 -249 -185 -358 -81 -123 -290 -333 -414 -417 -182
-123 -410 -217 -625 -259 -144 -28 -438 -25 -580 5 -220 47 -414 128 -600 252
-123 81 -333 290 -417 414 -121 179 -207 384 -254 605 -33 152 -33 448 0 600
47 222 133 425 254 605 84 124 294 333 417 414 220 146 465 239 712 271 111
14 377 3 490 -19z"/>
<path d="M4980 5754 c-557 -71 -998 -475 -1116 -1024 -26 -119 -26 -381 0
-500 56 -261 183 -488 372 -670 519 -495 1319 -476 1812 44 272 288 394 674
336 1063 -77 522 -473 946 -994 1064 -83 19 -331 33 -410 23z m301 -329 c249
-43 471 -183 621 -391 52 -72 124 -225 150 -319 31 -115 31 -355 0 -470 -76
-279 -263 -505 -523 -629 -147 -72 -226 -89 -404 -90 -124 0 -164 4 -234 22
-604 159 -904 816 -625 1365 190 374 606 584 1015 512z"/>
<path d="M8000 5440 l0 -160 160 0 160 0 0 160 0 160 -160 0 -160 0 0 -160z"/>
<path d="M8342 3985 c-34 -8 -95 -30 -135 -49 -342 -166 -468 -578 -275 -904
42 -72 148 -178 220 -220 31 -18 89 -45 130 -60 63 -22 89 -26 193 -27 97 0
133 4 190 22 98 31 189 87 265 163 75 76 121 148 158 252 23 64 26 88 26 198
0 110 -3 134 -26 198 -38 106 -83 177 -164 257 -151 151 -371 215 -582 170z
m288 -346 c64 -34 102 -74 141 -149 19 -37 23 -60 23 -130 0 -73 -4 -92 -27
-137 -34 -66 -84 -116 -150 -150 -45 -23 -64 -27 -137 -27 -70 0 -93 4 -130
23 -75 40 -115 77 -151 143 -31 58 -34 70 -33 148 0 72 4 93 26 136 38 73 69
106 129 139 71 38 102 45 182 40 51 -3 81 -11 127 -36z"/>
</g>
</svg>
