<?xml version="1.0" standalone="no"?>
<!DOCTYPE svg PUBLIC "-//W3C//DTD SVG 20010904//EN"
 "http://www.w3.org/TR/2001/REC-SVG-20010904/DTD/svg10.dtd">
<svg version="1.0" xmlns="http://www.w3.org/2000/svg"
 width="512.000000pt" height="512.000000pt" viewBox="0 0 512.000000 512.000000"
 preserveAspectRatio="xMidYMid meet">

<g transform="translate(0.000000,512.000000) scale(0.100000,-0.100000)"
fill="#fff" stroke="none">
<path d="M243 4916 c-88 -28 -163 -94 -210 -186 l-28 -55 -3 -2090 c-2 -2279
-6 -2142 52 -2234 32 -50 100 -109 155 -135 l46 -21 2305 0 2305 0 47 22 c71
32 141 103 174 176 l29 62 3 2085 c2 2273 6 2137 -52 2229 -32 50 -100 109
-155 135 l-46 21 -2290 2 c-1864 1 -2298 -1 -2332 -11z m4659 -98 c25 -16 60
-45 78 -65 53 -65 60 -109 60 -375 l0 -238 -2480 0 -2480 0 0 244 c0 258 5
293 50 357 28 39 81 78 127 95 32 11 431 13 2318 11 l2280 -2 47 -27z m138
-2536 c0 -2009 7 -1846 -79 -1932 -88 -88 147 -81 -2421 -78 l-2275 3 -47 27
c-25 16 -60 45 -78 65 -64 78 -60 -39 -60 1915 l0 1778 2480 0 2480 0 0 -1778z"/>
<path d="M460 4669 c-150 -45 -177 -247 -44 -325 38 -23 54 -26 105 -22 149
11 219 174 123 288 -47 55 -119 78 -184 59z m109 -98 c75 -53 33 -171 -61
-171 -85 0 -128 93 -73 159 37 44 84 48 134 12z"/>
<path d="M947 4666 c-77 -28 -120 -90 -120 -171 0 -101 64 -167 167 -173 75
-4 129 23 164 83 47 82 14 208 -66 249 -44 22 -103 27 -145 12z m89 -76 c30 0
64 -51 64 -95 0 -110 -160 -134 -189 -28 -14 50 8 99 51 118 18 8 39 12 46 10
8 -3 20 -5 28 -5z"/>
<path d="M1447 4666 c-77 -28 -120 -90 -120 -171 0 -101 64 -167 167 -173 75
-4 129 23 164 83 47 82 14 208 -66 249 -44 22 -103 27 -145 12z m89 -76 c30 0
64 -51 64 -95 0 -110 -160 -134 -189 -28 -14 50 8 99 51 118 18 8 39 12 46 10
8 -3 20 -5 28 -5z"/>
<path d="M2255 4671 c-83 -20 -128 -76 -133 -165 -4 -76 24 -129 83 -163 l40
-23 1209 0 1209 0 43 25 c77 45 106 152 64 235 -23 45 -60 73 -115 89 -45 12
-2348 14 -2400 2z m2426 -109 c40 -44 40 -93 0 -133 l-29 -29 -1199 0 -1199 0
-27 28 c-50 52 -29 141 38 161 17 6 537 9 1208 8 l1179 -2 29 -33z"/>
<path d="M445 3706 c-78 -47 -80 -55 -83 -363 -2 -182 1 -286 8 -314 15 -53
64 -104 115 -118 56 -15 4094 -15 4150 0 51 15 100 65 115 118 8 30 10 131 8
315 -3 259 -4 273 -25 306 -12 20 -40 46 -61 58 l-40 22 -2073 0 -2074 0 -40
-24z m715 -391 l0 -335 -315 0 c-362 0 -376 2 -395 67 -8 25 -10 125 -8 296
l3 259 28 24 28 24 330 0 329 0 0 -335z m3487 311 l28 -24 0 -287 0 -287 -28
-24 -28 -24 -1690 0 -1689 0 0 335 0 335 1689 0 1690 0 28 -24z"/>
<path d="M692 3513 c-102 -50 -133 -195 -60 -279 56 -64 126 -85 198 -60 l45
15 45 -44 c46 -45 76 -55 98 -33 20 20 14 33 -34 87 -43 48 -45 53 -35 83 32
92 -16 205 -102 237 -41 16 -117 13 -155 -6z m143 -79 c34 -22 50 -75 35 -118
-14 -44 -48 -66 -100 -66 -92 0 -132 109 -65 176 29 29 92 33 130 8z"/>
<path d="M370 2601 c-7 -13 -10 -350 -10 -1020 0 -988 0 -1001 20 -1021 20
-20 33 -20 1341 -20 891 0 1327 3 1340 10 19 10 19 33 19 1034 0 924 -2 1024
-16 1030 -9 3 -616 6 -1349 6 -1309 0 -1334 0 -1345 -19z m2630 -1016 l0 -955
-1280 0 -1280 0 0 955 0 955 1280 0 1280 0 0 -955z"/>
<path d="M1782 1818 c-7 -7 -12 -17 -12 -24 0 -28 261 -859 274 -872 29 -29
51 -4 114 130 l62 132 63 -60 c244 -235 287 -274 299 -274 20 0 198 184 198
204 0 15 -172 189 -297 300 -24 21 -43 42 -43 47 0 4 54 36 120 70 66 34 125
68 131 75 23 28 0 53 -69 73 -87 26 -807 211 -819 211 -5 0 -14 -5 -21 -12z
m426 -173 c179 -47 327 -87 330 -89 2 -3 -42 -28 -99 -57 -100 -50 -119 -63
-119 -84 0 -5 81 -89 180 -185 l180 -175 -49 -55 -48 -54 -179 172 c-127 123
-185 172 -199 170 -14 -2 -35 -33 -74 -113 l-54 -110 -23 70 c-66 209 -181
595 -177 595 3 0 152 -38 331 -85z"/>
<path d="M3382 2608 c-9 -9 -12 -120 -12 -440 0 -412 1 -428 19 -438 27 -14
1315 -14 1342 0 18 10 19 26 19 438 0 320 -3 431 -12 440 -17 17 -1339 17
-1356 0z m1288 -438 l0 -370 -610 0 -610 0 0 370 0 370 610 0 610 0 0 -370z"/>
<path d="M3382 1428 c-9 -9 -12 -120 -12 -440 0 -412 1 -428 19 -438 27 -14
1315 -14 1342 0 18 10 19 26 19 438 0 320 -3 431 -12 440 -17 17 -1339 17
-1356 0z m1288 -438 l0 -370 -610 0 -610 0 0 370 0 370 610 0 610 0 0 -370z"/>
</g>
</svg>
